<svg
  width="1920"
  height="2184.930"
  viewBox="0 0 1920 2184.930"
  fill="none"
  xmlns="http://www.w3.org/2000/svg">

  <path
    stroke="#EADBA8"
    stroke-width="12"
    d="m 1920,1925.507 c 0,52.4291 -160,206.9915 -160,259.4232 0,-52.4316 -160,-206.9941 -160,-259.4232 0,52.4289 -160,206.9915 -160,259.4231 0,-52.4316 -160.0001,-206.994 -160.0001,-259.4231 0,52.4289 -159.9999,206.9913 -159.9999,259.4231 0,-52.4316 -160.00005,-206.9942 -160.00005,-259.4232 10e-6,52.4289 -159.99997,206.9913 -159.99997,259.4231 0,-52.4317 -160,-206.9942 -160,-259.4231 0,52.4288 -159.99999,206.9913 -159.99999,259.4229 0,-52.4316 -160.00001,-206.994 -160.00001,-259.4231 1e-5,52.429 -159.99999,206.9914 -159.99999,259.4231 0,-52.4316 -160.0000027,-206.9941 -160.0000027,-259.4231 M 1920,1909.858 c 0,-52.4289 -160,-206.9915 -160,-259.4231 0,52.4316 -160,206.994 -160,259.4231 0,-52.4291 -160,-206.9915 -160,-259.4232 0,52.4316 -160.0001,206.9941 -160.0001,259.4231 0,-52.429 -159.9999,-206.9915 -159.9999,-259.4231 0,52.4316 -160.00003,206.994 -160.00003,259.4231 0,-52.4291 -159.99999,-206.9915 -159.99999,-259.4233 0,52.4317 -160,206.9942 -160,259.4231 0,-52.4289 -159.99999,-206.9914 -159.99999,-259.4232 0,52.4316 -160,206.9942 -160,259.4231 0,-52.4289 -160,-206.9915 -160,-259.4231 C 159.99999,1702.8661 7.9873986e-8,1857.4285 7.9873986e-8,1909.8576 M 1920,1375.3622 c 0,52.4289 -160,206.9913 -160,259.4232 0,-52.4317 -160,-206.9943 -160,-259.4232 0,52.4288 -160,206.9913 -160,259.423 0,-52.4317 -160.0001,-206.9941 -160.0001,-259.423 0,52.4288 -159.9999,206.9912 -159.9999,259.423 0,-52.4317 -160.00005,-206.9942 -160.00005,-259.4232 10e-6,52.4289 -159.99997,206.9913 -159.99997,259.4231 0,-52.4317 -160,-206.9942 -160,-259.4231 0,52.4287 -159.99999,206.9913 -159.99999,259.423 0,-52.4317 -160.00001,-206.9941 -160.00001,-259.4231 1e-5,52.4288 -159.99999,206.9912 -159.99999,259.4231 0,-52.4317 -160.0000027,-206.9943 -160.0000027,-259.4231 M 1920,1359.7132 c 0,-52.429 -160,-206.9914 -160,-259.4231 0,52.4316 -160,206.994 -160,259.4231 0,-52.4291 -160,-206.9915 -160,-259.4232 0,52.4317 -160.0001,206.9941 -160.0001,259.423 0,-52.4289 -159.9999,-206.9913 -159.9999,-259.4231 0,52.4317 -160.00003,206.9941 -160.00003,259.4231 0,-52.429 -159.99999,-206.9914 -159.99999,-259.4232 0,52.4317 -160,206.9942 -160,259.4231 0,-52.4289 -159.99999,-206.9914 -159.99999,-259.4231 0,52.4316 -160,206.9941 -160,259.423 0,-52.4289 -160,-206.9914 -160,-259.4231 C 159.99999,1152.7213 7.9873986e-8,1307.2837 7.9873986e-8,1359.7128 M 1920,825.21739 c 0,52.42888 -160,206.99141 -160,259.42321 0,-52.4318 -160,-206.99425 -160,-259.42321 0,52.4288 -160,206.99131 -160,259.42311 0,-52.4317 -160.0001,-206.99423 -160.0001,-259.42319 0,52.4288 -159.9999,206.99129 -159.9999,259.42309 0,-52.4317 -160.00005,-206.99421 -160.00005,-259.42317 10e-6,52.42882 -159.99997,206.99127 -159.99997,259.42317 0,-52.4318 -160,-206.99429 -160,-259.42325 0,52.42882 -159.99999,206.99135 -159.99999,259.42315 0,-52.4318 -160.00001,-206.99425 -160.00001,-259.42322 1e-5,52.42881 -159.99999,206.99132 -159.99999,259.42312 0,-52.4317 -160.0000027,-206.99423 -160.0000027,-259.42312 M 1920,809.56831 c 0,-52.42888 -160,-206.99134 -160,-259.42313 0,52.43171 -160,206.99417 -160,259.42305 0,-52.42888 -160,-206.99134 -160,-259.42313 0,52.43171 -160.0001,206.99417 -160.0001,259.42305 0,-52.42888 -159.9999,-206.99134 -159.9999,-259.42313 0,52.43172 -160.00003,206.99417 -160.00003,259.42305 0,-52.42888 -159.99999,-206.99133 -159.99999,-259.42313 0,52.43172 -160,206.99417 -160,259.42305 0,-52.42888 -159.99999,-206.99133 -159.99999,-259.42313 0,52.43171 -160,206.99417 -160,259.42306 0,-52.42889 -160,-206.99135 -160,-259.42313 C 159.99999,602.57649 7.9873986e-8,757.13897 7.9873986e-8,809.56784 M 1920,275.0726 c 0,52.42888 -160,206.99135 -160,259.42314 0,-52.43171 -160,-206.99418 -160,-259.42314 0,52.42882 -160,206.99127 -160,259.42306 0,-52.43171 -160.0001,-206.99418 -160.0001,-259.42314 0,52.42882 -159.9999,206.99127 -159.9999,259.42307 0,-52.43172 -160.00005,-206.99417 -160.00005,-259.42314 10e-6,52.42881 -159.99997,206.99126 -159.99997,259.42306 0,-52.43172 -160,-206.99417 -160,-259.42314 0,52.42881 -159.99999,206.99127 -159.99999,259.42306 0,-52.43172 -160.00001,-206.99417 -160.00001,-259.42314 1e-5,52.42881 -159.99999,206.99127 -159.99999,259.42306 C 159.99999,482.06364 -1.27e-5,327.50118 -1.27e-5,275.07229 M 1920,259.42352 C 1920,206.99465 1760,52.432183 1760,3.86e-4 1760,52.432104 1600,206.99457 1600,259.42344 1600,206.99457 1440,52.432104 1440,3.08e-4 1440,52.432026 1279.9999,206.99449 1279.9999,259.42336 1279.9999,206.99449 1120,52.432026 1120,2.3e-4 c 0,52.431719 -160.00003,206.99418 -160.00003,259.42306 0,-52.42888 -159.99999,-206.991341 -159.99999,-259.423138 0,52.431718 -160,206.994188 -160,259.423058 0,-52.42887 -159.99999,-206.991334 -159.99999,-259.423132 0,52.431719 -160,206.994182 -160,259.423052 0,-52.42887 -160,-206.991333 -160,-259.42313 C 159.99999,52.431719 7.9873986e-8,206.99418 7.9873986e-8,259.42305" />
</svg>
