<?xml version="1.0" encoding="UTF-8" standalone="no"?>
<!-- Created with Inkscape (http://www.inkscape.org/) -->

<svg
   width="1920"
   height="2184.9299"
   viewBox="0 0 1920 2184.9299"
   version="1.1"
   id="svg1"
   sodipodi:docname="pattern.svg"
   inkscape:version="1.3.2 (091e20e, 2023-11-25, custom)"
   inkscape:export-filename="pattern2.svg"
   inkscape:export-xdpi="96"
   inkscape:export-ydpi="96"
   xmlns:inkscape="http://www.inkscape.org/namespaces/inkscape"
   xmlns:sodipodi="http://sodipodi.sourceforge.net/DTD/sodipodi-0.dtd"
   xmlns="http://www.w3.org/2000/svg"
   xmlns:svg="http://www.w3.org/2000/svg"
   xmlns:rdf="http://www.w3.org/1999/02/22-rdf-syntax-ns#"
   xmlns:cc="http://creativecommons.org/ns#">
  <sodipodi:namedview
     id="namedview1"
     pagecolor="#505050"
     bordercolor="#eeeeee"
     borderopacity="1"
     inkscape:showpageshadow="0"
     inkscape:pageopacity="0"
     inkscape:pagecheckerboard="false"
     inkscape:deskcolor="#505050"
     inkscape:document-units="px"
     inkscape:zoom="0.23295939"
     inkscape:cx="957.24839"
     inkscape:cy="1092.4651"
     inkscape:window-width="1366"
     inkscape:window-height="705"
     inkscape:window-x="-8"
     inkscape:window-y="-8"
     inkscape:window-maximized="1"
     inkscape:current-layer="layer1"
     labelstyle="default" />
  <defs
     id="defs1">
    <pattern
       patternUnits="userSpaceOnUse"
       width="253.07663"
       height="409.85779"
       patternTransform="translate(-4.0000098,2.9814339e-5)"
       preserveAspectRatio="xMidYMid"
       id="pattern8"
       inkscape:label="pattern8">
      <path
         id="path8"
         style="display:inline;fill:none;stroke:#ffffff;stroke-width:8;stroke-linecap:butt;stroke-dasharray:none"
         d="m 249.07663,210.92885 c 0,40.20313 -122.53831,158.72358 -122.53831,198.92894 C 126.53832,369.65249 4,251.13204 4,210.92891 M 249.07663,198.92894 C 249.07663,158.72581 126.53832,40.205364 126.53832,0 c 0,40.205304 -122.5383102,158.72575 -122.5383102,198.92888" />
    </pattern>
  </defs>
  <g
     inkscape:label="sketch"
     inkscape:groupmode="layer"
     id="layer1"
     style="display:none">
    <rect
       style="display:inline;fill:none;stroke:#ffffff;stroke-width:1.07109;stroke-linecap:square;stroke-dasharray:none"
       id="rect1"
       width="122.53831"
       height="198.92891"
       x="-122.53831"
       y="0"
       transform="scale(-1,1)"
       inkscape:label="measurement" />
    <path
       style="display:none;fill:none;stroke:#ffffff;stroke-width:8;stroke-linecap:butt;stroke-dasharray:none"
       d="M 0,198.92891 C 0,158.72578 122.53831,40.205334 122.53831,0"
       id="path2"
       sodipodi:nodetypes="cc"
       inkscape:label="base_stroke" />
    <rect
       style="display:inline;fill:none;stroke:#ffffff;stroke-width:0.999999;stroke-linecap:butt;stroke-dasharray:none"
       id="rect3"
       width="40.203133"
       height="40.203133"
       x="82.335182"
       y="0"
       inkscape:label="aid" />
    <path
       id="path7"
       style="display:inline;fill:none;stroke:#ffffff;stroke-width:8;stroke-linecap:butt;stroke-dasharray:none"
       d="m 245.07662,210.92888 c 0,40.20313 -122.53831,158.72358 -122.53831,198.92894 C 122.53831,369.65252 -9.8100586e-6,251.13207 -9.8100586e-6,210.92894 M 245.07662,198.92897 C 245.07662,158.72584 122.53831,40.205394 122.53831,2.9814339e-5 122.53831,40.205334 0,158.72578 0,198.92891"
       inkscape:label="base_pattern" />
  </g>
  <g
     inkscape:groupmode="layer"
     id="layer2"
     inkscape:label="design"
     style="display:inline">
    <path
       id="path16"
       style="display:inline;fill:none;stroke:#eadba8;stroke-width:12;stroke-linecap:butt;stroke-linejoin:miter;stroke-dasharray:none;stroke-opacity:1"
       d="m 1920,1925.507 c 0,52.4291 -160,206.9915 -160,259.4232 0,-52.4316 -160,-206.9941 -160,-259.4232 0,52.4289 -160,206.9915 -160,259.4231 0,-52.4316 -160.0001,-206.994 -160.0001,-259.4231 0,52.4289 -159.9999,206.9913 -159.9999,259.4231 0,-52.4316 -160.00005,-206.9942 -160.00005,-259.4232 10e-6,52.4289 -159.99997,206.9913 -159.99997,259.4231 0,-52.4317 -160,-206.9942 -160,-259.4231 0,52.4288 -159.99999,206.9913 -159.99999,259.4229 0,-52.4316 -160.00001,-206.994 -160.00001,-259.4231 1e-5,52.429 -159.99999,206.9914 -159.99999,259.4231 0,-52.4316 -160.0000027,-206.9941 -160.0000027,-259.4231 M 1920,1909.858 c 0,-52.4289 -160,-206.9915 -160,-259.4231 0,52.4316 -160,206.994 -160,259.4231 0,-52.4291 -160,-206.9915 -160,-259.4232 0,52.4316 -160.0001,206.9941 -160.0001,259.4231 0,-52.429 -159.9999,-206.9915 -159.9999,-259.4231 0,52.4316 -160.00003,206.994 -160.00003,259.4231 0,-52.4291 -159.99999,-206.9915 -159.99999,-259.4233 0,52.4317 -160,206.9942 -160,259.4231 0,-52.4289 -159.99999,-206.9914 -159.99999,-259.4232 0,52.4316 -160,206.9942 -160,259.4231 0,-52.4289 -160,-206.9915 -160,-259.4231 C 159.99999,1702.8661 7.9873986e-8,1857.4285 7.9873986e-8,1909.8576 M 1920,1375.3622 c 0,52.4289 -160,206.9913 -160,259.4232 0,-52.4317 -160,-206.9943 -160,-259.4232 0,52.4288 -160,206.9913 -160,259.423 0,-52.4317 -160.0001,-206.9941 -160.0001,-259.423 0,52.4288 -159.9999,206.9912 -159.9999,259.423 0,-52.4317 -160.00005,-206.9942 -160.00005,-259.4232 10e-6,52.4289 -159.99997,206.9913 -159.99997,259.4231 0,-52.4317 -160,-206.9942 -160,-259.4231 0,52.4287 -159.99999,206.9913 -159.99999,259.423 0,-52.4317 -160.00001,-206.9941 -160.00001,-259.4231 1e-5,52.4288 -159.99999,206.9912 -159.99999,259.4231 0,-52.4317 -160.0000027,-206.9943 -160.0000027,-259.4231 M 1920,1359.7132 c 0,-52.429 -160,-206.9914 -160,-259.4231 0,52.4316 -160,206.994 -160,259.4231 0,-52.4291 -160,-206.9915 -160,-259.4232 0,52.4317 -160.0001,206.9941 -160.0001,259.423 0,-52.4289 -159.9999,-206.9913 -159.9999,-259.4231 0,52.4317 -160.00003,206.9941 -160.00003,259.4231 0,-52.429 -159.99999,-206.9914 -159.99999,-259.4232 0,52.4317 -160,206.9942 -160,259.4231 0,-52.4289 -159.99999,-206.9914 -159.99999,-259.4231 0,52.4316 -160,206.9941 -160,259.423 0,-52.4289 -160,-206.9914 -160,-259.4231 C 159.99999,1152.7213 7.9873986e-8,1307.2837 7.9873986e-8,1359.7128 M 1920,825.21739 c 0,52.42888 -160,206.99141 -160,259.42321 0,-52.4318 -160,-206.99425 -160,-259.42321 0,52.4288 -160,206.99131 -160,259.42311 0,-52.4317 -160.0001,-206.99423 -160.0001,-259.42319 0,52.4288 -159.9999,206.99129 -159.9999,259.42309 0,-52.4317 -160.00005,-206.99421 -160.00005,-259.42317 10e-6,52.42882 -159.99997,206.99127 -159.99997,259.42317 0,-52.4318 -160,-206.99429 -160,-259.42325 0,52.42882 -159.99999,206.99135 -159.99999,259.42315 0,-52.4318 -160.00001,-206.99425 -160.00001,-259.42322 1e-5,52.42881 -159.99999,206.99132 -159.99999,259.42312 0,-52.4317 -160.0000027,-206.99423 -160.0000027,-259.42312 M 1920,809.56831 c 0,-52.42888 -160,-206.99134 -160,-259.42313 0,52.43171 -160,206.99417 -160,259.42305 0,-52.42888 -160,-206.99134 -160,-259.42313 0,52.43171 -160.0001,206.99417 -160.0001,259.42305 0,-52.42888 -159.9999,-206.99134 -159.9999,-259.42313 0,52.43172 -160.00003,206.99417 -160.00003,259.42305 0,-52.42888 -159.99999,-206.99133 -159.99999,-259.42313 0,52.43172 -160,206.99417 -160,259.42305 0,-52.42888 -159.99999,-206.99133 -159.99999,-259.42313 0,52.43171 -160,206.99417 -160,259.42306 0,-52.42889 -160,-206.99135 -160,-259.42313 C 159.99999,602.57649 7.9873986e-8,757.13897 7.9873986e-8,809.56784 M 1920,275.0726 c 0,52.42888 -160,206.99135 -160,259.42314 0,-52.43171 -160,-206.99418 -160,-259.42314 0,52.42882 -160,206.99127 -160,259.42306 0,-52.43171 -160.0001,-206.99418 -160.0001,-259.42314 0,52.42882 -159.9999,206.99127 -159.9999,259.42307 0,-52.43172 -160.00005,-206.99417 -160.00005,-259.42314 10e-6,52.42881 -159.99997,206.99126 -159.99997,259.42306 0,-52.43172 -160,-206.99417 -160,-259.42314 0,52.42881 -159.99999,206.99127 -159.99999,259.42306 0,-52.43172 -160.00001,-206.99417 -160.00001,-259.42314 1e-5,52.42881 -159.99999,206.99127 -159.99999,259.42306 C 159.99999,482.06364 -1.27e-5,327.50118 -1.27e-5,275.07229 M 1920,259.42352 C 1920,206.99465 1760,52.432183 1760,3.86e-4 1760,52.432104 1600,206.99457 1600,259.42344 1600,206.99457 1440,52.432104 1440,3.08e-4 1440,52.432026 1279.9999,206.99449 1279.9999,259.42336 1279.9999,206.99449 1120,52.432026 1120,2.3e-4 c 0,52.431719 -160.00003,206.99418 -160.00003,259.42306 0,-52.42888 -159.99999,-206.991341 -159.99999,-259.423138 0,52.431718 -160,206.994188 -160,259.423058 0,-52.42887 -159.99999,-206.991334 -159.99999,-259.423132 0,52.431719 -160,206.994182 -160,259.423052 0,-52.42887 -160,-206.991333 -160,-259.42313 C 159.99999,52.431719 7.9873986e-8,206.99418 7.9873986e-8,259.42305"
       inkscape:export-filename="path16.svg"
       inkscape:export-xdpi="96"
       inkscape:export-ydpi="96"
       inkscape:label="pattern" />
  </g>
  <metadata
     id="metadata1">
    <rdf:RDF>
      <cc:License
         rdf:about="http://creativecommons.org/publicdomain/zero/1.0/">
        <cc:permits
           rdf:resource="http://creativecommons.org/ns#Reproduction" />
        <cc:permits
           rdf:resource="http://creativecommons.org/ns#Distribution" />
        <cc:permits
           rdf:resource="http://creativecommons.org/ns#DerivativeWorks" />
      </cc:License>
      <cc:Work
         rdf:about="">
        <cc:license
           rdf:resource="http://creativecommons.org/publicdomain/zero/1.0/" />
      </cc:Work>
    </rdf:RDF>
  </metadata>
</svg>
